<svg width="30" height="30" viewBox="0 0 30 30" fill="none" xmlns="http://www.w3.org/2000/svg">
<g clip-path="url(#clip0)">
<path d="M2.37232 11.6572C2.17236 11.4983 1.875 11.647 1.875 11.8982V22.3828C1.875 23.7415 2.97729 24.8438 4.33594 24.8438H25.6641C27.0227 24.8438 28.125 23.7415 28.125 22.3828V11.9033C28.125 11.647 27.8328 11.5034 27.6277 11.6624C26.4792 12.5544 24.9565 13.6875 19.7271 17.4866C18.6453 18.2761 16.8201 19.9373 15 19.927C13.1697 19.9424 11.3086 18.2454 10.2678 17.4866C5.03833 13.6875 3.52075 12.5493 2.37232 11.6572ZM15 18.2812C13.8105 18.3018 12.0981 16.7842 11.2368 16.1587C4.43335 11.2214 3.91553 10.7908 2.34668 9.5603C2.04932 9.32959 1.875 8.9707 1.875 8.59131V7.61719C1.875 6.25854 2.97729 5.15625 4.33594 5.15625H25.6641C27.0227 5.15625 28.125 6.25854 28.125 7.61719V8.59131C28.125 8.9707 27.9507 9.32446 27.6533 9.5603C26.0845 10.7856 25.5666 11.2214 18.7632 16.1587C17.9019 16.7842 16.1895 18.3018 15 18.2812Z" fill="black"/>
</g>
<defs>
<clipPath id="clip0">
<rect width="26.25" height="26.25" fill="white" transform="matrix(-1 0 0 1 28.125 1.875)"/>
</clipPath>
</defs>
</svg>
