<svg width="24" height="24" viewBox="0 0 24 24" fill="none" xmlns="http://www.w3.org/2000/svg">
<path d="M19.4375 16.7778H5.91667V7.22222C5.91667 7.09944 5.81411 7 5.6875 7H5.22917C5.10255 7 5 7.09944 5 7.22222V17.2222C5 17.4678 5.2051 17.6667 5.45833 17.6667H19.4375C19.5641 17.6667 19.6667 17.5672 19.6667 17.4444V17C19.6667 16.8772 19.5641 16.7778 19.4375 16.7778ZM7.81703 12.5286C7.72766 12.6153 7.72766 12.7561 7.81703 12.8428L8.14102 13.1569C8.23039 13.2436 8.37563 13.2436 8.465 13.1569L10.5473 11.1567L12.9733 13.5092C13.1523 13.6828 13.4425 13.6828 13.6215 13.5092L16.3008 10.9111L17.5623 12.1344C17.7041 12.2719 17.8783 12.3333 18.0493 12.3333C18.4068 12.3333 18.75 12.0639 18.75 11.6572V8.33861C18.75 8.09028 18.5423 7.88889 18.2862 7.88889H14.8639C14.244 7.88889 13.9338 8.61556 14.3721 9.04056L15.6528 10.2825L13.2976 12.5664L10.8733 10.2156C10.6948 10.0425 10.4058 10.0419 10.2267 10.2142L7.81703 12.5286V12.5286ZM15.3973 8.77778H17.8333V11.14L15.3973 8.77778Z" fill="#4A4A4A"/>
</svg>
