<svg width="24" height="24" viewBox="0 0 24 24" fill="none" xmlns="http://www.w3.org/2000/svg">
<path d="M18.4444 6H6.22222C5.54745 6 5 6.5439 5 7.21429V16.119C5 16.7894 5.54745 17.3333 6.22222 17.3333H18.4444C19.1192 17.3333 19.6667 16.7894 19.6667 16.119V7.21429C19.6667 6.5439 19.1192 6 18.4444 6ZM6.22222 6.80952H18.4444C18.6685 6.80952 18.8519 6.99167 18.8519 7.21429V8.42857H5.81481V7.21429C5.81481 6.99167 5.99815 6.80952 6.22222 6.80952ZM18.4444 16.5238H6.22222C5.99815 16.5238 5.81481 16.3417 5.81481 16.119V10.8571H18.8519V16.119C18.8519 16.3417 18.6685 16.5238 18.4444 16.5238ZM9.88889 14.3988V14.6012C9.88889 14.7682 9.75139 14.9048 9.58333 14.9048H7.75C7.58194 14.9048 7.44444 14.7682 7.44444 14.6012V14.3988C7.44444 14.2318 7.58194 14.0952 7.75 14.0952H9.58333C9.75139 14.0952 9.88889 14.2318 9.88889 14.3988ZM14.7778 14.3988V14.6012C14.7778 14.7682 14.6403 14.9048 14.4722 14.9048H11.0093C10.8412 14.9048 10.7037 14.7682 10.7037 14.6012V14.3988C10.7037 14.2318 10.8412 14.0952 11.0093 14.0952H14.4722C14.6403 14.0952 14.7778 14.2318 14.7778 14.3988Z" fill="#4A4A4A"/>
</svg>
