<svg width="24" height="24" viewBox="0 0 24 24" fill="none" xmlns="http://www.w3.org/2000/svg">
<path fill-rule="evenodd" clip-rule="evenodd" d="M12.2941 6.09563C12.1188 5.96812 11.8813 5.96812 11.7059 6.09563L6.20595 10.0956C5.98262 10.2581 5.93325 10.5708 6.09567 10.7941C6.25809 11.0174 6.57079 11.0668 6.79412 10.9044L12 7.11825L17.2059 10.9044C17.4293 11.0668 17.742 11.0174 17.9044 10.7941C18.0668 10.5708 18.0174 10.2581 17.7941 10.0956L12.2941 6.09563ZM8.00004 12.5C8.00004 12.2239 7.77618 12 7.50004 12C7.22389 12 7.00004 12.2239 7.00004 12.5V17.5C7.00004 17.7761 7.22389 18 7.50004 18H10.5C10.7762 18 11 17.7761 11 17.5V15H13V17.5C13 17.7761 13.2239 18 13.5 18H16.5C16.7762 18 17 17.7761 17 17.5V12.5C17 12.2239 16.7762 12 16.5 12C16.2239 12 16 12.2239 16 12.5V17H14V14.5C14 14.2239 13.7762 14 13.5 14H10.5C10.2239 14 10 14.2239 10 14.5V17H8.00004V12.5Z" fill="#4A4A4A"/>
</svg>
