<svg width="24" height="24" viewBox="0 0 24 24" fill="none" xmlns="http://www.w3.org/2000/svg">
<path d="M6.25699 3.88083L13.952 11.684C14.1233 11.8579 14.1233 12.1389 13.952 12.3127L6.25699 20.1159C6.08566 20.2898 5.80863 20.2898 5.6373 20.1159L5.37849 19.8534C5.20717 19.6796 5.20717 19.3985 5.37849 19.2247L12.5049 11.9984L5.38214 4.7684C5.21081 4.59458 5.21081 4.31352 5.38214 4.1397L5.64095 3.87713C5.80863 3.70701 6.08566 3.70701 6.25699 3.88083ZM10.3032 3.88083L10.0443 4.1434C9.87303 4.31722 9.87303 4.59828 10.0443 4.77209L17.1707 11.9984L10.048 19.2284C9.87667 19.4022 9.87667 19.6833 10.048 19.8571L10.3068 20.1196C10.4781 20.2935 10.7552 20.2935 10.9265 20.1196L18.6215 12.3164C18.7928 12.1426 18.7928 11.8616 18.6215 11.6877L10.9265 3.88453C10.7515 3.70701 10.4745 3.70701 10.3032 3.88083V3.88083Z" fill="#4A4A4A"/>
</svg>
