<svg width="24" height="24" viewBox="0 0 24 24" fill="none" xmlns="http://www.w3.org/2000/svg">
<path d="M19.463 6H19.0556C18.943 6 18.8519 6.09057 18.8519 6.20238V6.69138L5.81481 9.73899V9.44048C5.81481 9.32866 5.72366 9.2381 5.61111 9.2381H5.2037C5.09116 9.2381 5 9.32866 5 9.44048V13.8929C5 14.0047 5.09116 14.0952 5.2037 14.0952H5.61111C5.72366 14.0952 5.81481 14.0047 5.81481 13.8929V13.5943L9.13977 14.3715C9.10005 14.5435 9.07407 14.7206 9.07407 14.9045C9.07407 16.2458 10.1685 17.3331 11.5185 17.3331C12.6677 17.3331 13.6179 16.5413 13.8774 15.479L18.8519 16.6419V17.131C18.8519 17.2428 18.943 17.3333 19.0556 17.3333H19.463C19.5755 17.3333 19.6667 17.2428 19.6667 17.131V6.20238C19.6667 6.09057 19.5755 6 19.463 6ZM11.5185 16.5238C10.6199 16.5238 9.88889 15.7975 9.88889 14.9048C9.88889 14.7846 9.90722 14.6692 9.9337 14.5572L13.0944 15.2961C12.9169 15.9994 12.2806 16.5238 11.5185 16.5238ZM5.81481 12.7628V10.5705L18.8519 7.52292V15.8104L5.81481 12.7628Z" fill="#4A4A4A"/>
</svg>
