<svg width="24" height="24" viewBox="0 0 24 24" fill="none" xmlns="http://www.w3.org/2000/svg">
<path d="M11.1071 7.44824V8.7373C11.1071 8.95087 10.9362 9.12402 10.7254 9.12402H9.45313C9.24233 9.12402 9.07143 8.95087 9.07143 8.7373V7.44824C9.07143 7.23468 9.24233 7.06152 9.45313 7.06152H10.7254C10.9362 7.06152 11.1071 7.23468 11.1071 7.44824ZM14.7969 7.06152H13.5246C13.3138 7.06152 13.1429 7.23468 13.1429 7.44824V8.7373C13.1429 8.95087 13.3138 9.12402 13.5246 9.12402H14.7969C15.0077 9.12402 15.1786 8.95087 15.1786 8.7373V7.44824C15.1786 7.23468 15.0077 7.06152 14.7969 7.06152ZM10.7254 10.1553H9.45313C9.24233 10.1553 9.07143 10.3284 9.07143 10.542V11.8311C9.07143 12.0446 9.24233 12.2178 9.45313 12.2178H10.7254C10.9362 12.2178 11.1071 12.0446 11.1071 11.8311V10.542C11.1071 10.3284 10.9362 10.1553 10.7254 10.1553ZM14.7969 10.1553H13.5246C13.3138 10.1553 13.1429 10.3284 13.1429 10.542V11.8311C13.1429 12.0446 13.3138 12.2178 13.5246 12.2178H14.7969C15.0077 12.2178 15.1786 12.0446 15.1786 11.8311V10.542C15.1786 10.3284 15.0077 10.1553 14.7969 10.1553ZM10.7254 13.249H9.45313C9.24233 13.249 9.07143 13.4222 9.07143 13.6357V14.9248C9.07143 15.1384 9.24233 15.3115 9.45313 15.3115H10.7254C10.9362 15.3115 11.1071 15.1384 11.1071 14.9248V13.6357C11.1071 13.4222 10.9362 13.249 10.7254 13.249ZM14.7969 13.249H13.5246C13.3138 13.249 13.1429 13.4222 13.1429 13.6357V14.9248C13.1429 15.1384 13.3138 15.3115 13.5246 15.3115H14.7969C15.0077 15.3115 15.1786 15.1384 15.1786 14.9248V13.6357C15.1786 13.4222 15.0077 13.249 14.7969 13.249ZM19.25 19.8555V20.5H5V19.8555C5 19.6419 5.1709 19.4688 5.3817 19.4688H6.01786V4.77344C6.01786 4.34627 6.35963 4 6.78125 4H17.4688C17.8904 4 18.2321 4.34627 18.2321 4.77344V19.4688H18.8683C19.0791 19.4688 19.25 19.6419 19.25 19.8555ZM17.2143 19.4688V5.03125H7.03571V19.4688H11.1071V16.7295C11.1071 16.5159 11.278 16.3428 11.4888 16.3428H12.7612C12.972 16.3428 13.1429 16.5159 13.1429 16.7295V19.4688H17.2143Z" fill="#4A4A4A"/>
</svg>
