<svg width="24" height="24" viewBox="0 0 24 24" fill="none" xmlns="http://www.w3.org/2000/svg">
<g clip-path="url(#clip0)">
<path d="M19.7267 9.02537L15.0249 8.37023L12.9234 4.29788C12.5469 3.57199 11.4559 3.56277 11.0762 4.29788L8.9747 8.37023L4.27291 9.02537C3.42975 9.14225 3.09184 10.1357 3.70329 10.7048L7.10493 13.8728L6.30038 18.3481C6.15556 19.157 7.047 19.763 7.79362 19.3846L11.9998 17.2716L16.206 19.3846C16.9526 19.7599 17.8441 19.157 17.6992 18.3481L16.8947 13.8728L20.2963 10.7048C20.9078 10.1357 20.5699 9.14225 19.7267 9.02537V9.02537ZM15.7908 13.5283L16.6855 18.5111L11.9998 16.1612L7.31733 18.5142L8.21199 13.5314L4.42095 9.99732L9.65696 9.27144L11.9998 4.73464L14.3427 9.27144L19.5787 9.99732L15.7908 13.5283Z" fill="#4A4A4A"/>
</g>
<defs>
<clipPath id="clip0">
<rect width="18" height="15.75" fill="white" transform="translate(3 3.75)"/>
</clipPath>
</defs>
</svg>
