<svg width="24" height="24" viewBox="0 0 24 24" fill="none" xmlns="http://www.w3.org/2000/svg">
<g clip-path="url(#clip0)">
<path d="M19.6466 19.6753L15.6946 15.7233C15.6242 15.6528 15.5323 15.6161 15.4342 15.6161H15.1187C16.1695 14.4795 16.8128 12.963 16.8128 11.2934C16.8128 7.77333 13.9606 4.92114 10.4406 4.92114C6.92055 4.92114 4.06836 7.77333 4.06836 11.2934C4.06836 14.8134 6.92055 17.6656 10.4406 17.6656C12.1102 17.6656 13.6267 17.0223 14.7633 15.9745V16.287C14.7633 16.385 14.8031 16.477 14.8705 16.5474L18.8225 20.4994C18.9665 20.6434 19.1994 20.6434 19.3434 20.4994L19.6466 20.1961C19.7906 20.0521 19.7906 19.8193 19.6466 19.6753ZM10.4406 16.6853C7.45974 16.6853 5.0487 14.2742 5.0487 11.2934C5.0487 8.31252 7.45974 5.90149 10.4406 5.90149C13.4215 5.90149 15.8325 8.31252 15.8325 11.2934C15.8325 14.2742 13.4215 16.6853 10.4406 16.6853Z" fill="#4A4A4A"/>
</g>
<g clip-path="url(#clip1)">
<path d="M9.49867 8.11833L9.49863 8.11837L9.23126 8.39131L9.58843 8.7412L9.23126 8.39131C8.93006 8.69879 8.93011 9.19306 9.23122 9.50051L9.23126 9.50055L12.0389 12.3667C12.3457 12.6799 12.8475 12.6798 13.1543 12.3667L13.1543 12.3667L20.2403 5.13313C20.5415 4.82566 20.5414 4.33138 20.2403 4.02393L20.2403 4.0239L19.9729 3.75093L19.6157 4.10082L19.9729 3.75093C19.666 3.43772 19.1642 3.43772 18.8574 3.75093L12.5966 10.1422L10.6141 8.11837C10.3073 7.80514 9.80548 7.8052 9.49867 8.11833Z" fill="#4A4A4A" stroke="white"/>
</g>
<defs>
<clipPath id="clip0">
<rect width="17.2549" height="17.2549" fill="white" transform="translate(3.28418 4.13684)"/>
</clipPath>
<clipPath id="clip1">
<rect width="10.5882" height="12.3529" fill="white" transform="translate(9.44141 1.88235)"/>
</clipPath>
</defs>
</svg>
