<svg width="24" height="24" viewBox="0 0 24 24" fill="none" xmlns="http://www.w3.org/2000/svg">
<path d="M15.5824 11.9014C13.6134 11.9014 12.0117 13.5032 12.0117 15.472C12.0117 17.4408 13.6136 19.0426 15.5824 19.0426C17.5513 19.0426 19.153 17.4408 19.153 15.472C19.153 13.5032 17.5513 11.9014 15.5824 11.9014ZM15.5824 18.3937C13.9714 18.3937 12.661 17.083 12.661 15.4722C12.661 13.8614 13.9715 12.5507 15.5824 12.5507C17.1932 12.5507 18.5039 13.8614 18.5039 15.4722C18.5039 17.083 17.1932 18.3937 15.5824 18.3937Z" fill="#4A4A4A"/>
<path d="M17.2054 15.147H15.9069V13.3618C15.9069 13.1825 15.7616 13.0371 15.5823 13.0371C15.403 13.0371 15.2578 13.1825 15.2578 13.3618V15.7963H17.2054C17.3846 15.7963 17.53 15.6509 17.53 15.4716C17.53 15.2924 17.3846 15.147 17.2054 15.147Z" fill="#4A4A4A"/>
<path d="M4.63879 15.8354V9.63502H15.3581L15.3579 11.1593H15.9969V7.21218C15.9961 6.57222 15.475 6.05172 14.8354 6.05172H12.8413V5.31939C12.8413 5.14342 12.6983 5 12.5219 5C12.3456 5 12.2025 5.14323 12.2025 5.31939V7.21238C12.2025 7.38835 12.3456 7.53177 12.5219 7.53177C12.6983 7.53177 12.8413 7.38854 12.8413 7.21238V6.69031H14.8354C15.1233 6.69031 15.3573 6.92455 15.3573 7.21238V8.99603H4.63879V7.21238C4.63879 6.92455 4.87302 6.69031 5.16065 6.69031H6.9523V6.05172H5.16065C4.5207 6.05172 4 6.57242 4 7.21238V15.8354C4 16.4754 4.5207 16.9961 5.16065 16.9961H11.4295V16.3575H5.16065C4.87302 16.3573 4.63879 16.1231 4.63879 15.8354Z" fill="#4A4A4A"/>
<path d="M7.47564 7.53177C7.6518 7.53177 7.79504 7.38854 7.79504 7.21238V6.69032H12.0015V6.05172H7.79504V5.3194C7.79504 5.14343 7.6518 5 7.47564 5C7.29948 5 7.15625 5.14323 7.15625 5.3194V7.21238C7.15625 7.38854 7.29948 7.53177 7.47564 7.53177Z" fill="#4A4A4A"/>
</svg>
