<svg width="30" height="30" viewBox="0 0 30 30" fill="none" xmlns="http://www.w3.org/2000/svg">
<path d="M25.6641 5H4.33594C2.97729 5 1.875 6.11979 1.875 7.5V22.5C1.875 23.8802 2.97729 25 4.33594 25H25.6641C27.0227 25 28.125 23.8802 28.125 22.5V7.5C28.125 6.11979 27.0227 5 25.6641 5ZM4.33594 6.66667H25.6641C26.1152 6.66667 26.4844 7.04167 26.4844 7.5V9.65625C25.3616 10.6198 23.7568 11.9479 18.7632 15.974C17.8967 16.6719 16.1895 18.3542 15 18.3333C13.8105 18.3542 12.0981 16.6719 11.2368 15.974C6.24316 11.9479 4.63843 10.6198 3.51562 9.65625V7.5C3.51562 7.04167 3.88477 6.66667 4.33594 6.66667ZM25.6641 23.3333H4.33594C3.88477 23.3333 3.51562 22.9583 3.51562 22.5V11.8229C4.68457 12.7969 6.53027 14.3021 10.2166 17.276C11.2676 18.1302 13.1235 20.0104 15 20C16.8662 20.0156 18.7068 18.151 19.7834 17.276C23.4697 14.3021 25.3154 12.7969 26.4844 11.8229V22.5C26.4844 22.9583 26.1152 23.3333 25.6641 23.3333Z" fill="black"/>
</svg>
