<svg width="20" height="20" viewBox="0 0 20 20" fill="none" xmlns="http://www.w3.org/2000/svg">
<path fill-rule="evenodd" clip-rule="evenodd" d="M16.1766 2.61512C15.5908 2.02934 14.6411 2.02933 14.0553 2.61512L12.5769 4.09346L5.14645 11.524C5.05268 11.6177 5 11.7449 5 11.8775V14.5C5 14.7762 5.22386 15 5.5 15H8.12253C8.25514 15 8.38232 14.9474 8.47608 14.8536L15.9066 7.42309L17.3849 5.94476C17.9707 5.35897 17.9707 4.40922 17.3849 3.82344L16.1766 2.61512ZM14.7624 3.32223C14.9576 3.12697 15.2742 3.12697 15.4695 3.32223L16.6778 4.53054C16.8731 4.72581 16.8731 5.04239 16.6778 5.23765L15.553 6.36243L13.6376 4.44701L14.7624 3.32223ZM12.9305 5.15412L14.8459 7.06954L7.91542 14H6V12.0846L12.9305 5.15412ZM3.5 3.00004C2.67157 3.00004 2 3.67161 2 4.50004V16.5C2 17.3285 2.67157 18 3.5 18H15.5C16.3284 18 17 17.3285 17 16.5L17 10.5C17 10.2239 16.7761 10 16.5 10C16.2239 10 16 10.2239 16 10.5L16 16.5C16 16.7762 15.7761 17 15.5 17H3.5C3.22386 17 3 16.7762 3 16.5V4.50004C3 4.2239 3.22386 4.00004 3.5 4.00004H9.5C9.77614 4.00004 10 3.77618 10 3.50004C10 3.2239 9.77614 3.00004 9.5 3.00004H3.5Z" fill="#4A4A4A"/>
</svg>
