<svg width="24" height="24" viewBox="0 0 24 24" fill="none" xmlns="http://www.w3.org/2000/svg">
<path d="M20.9483 14.4474L20.5229 14.1969C20.5436 13.9728 20.5436 13.746 20.5229 13.5219L20.9509 13.2714C21.1958 13.1264 21.3067 12.8311 21.2216 12.5595C21.036 11.9425 20.7086 11.3624 20.2755 10.8852C20.0847 10.6716 19.7779 10.6241 19.5355 10.7691L19.1101 11.0196C18.9297 10.8878 18.7389 10.7744 18.5378 10.6821V10.1812C18.5378 9.89111 18.3444 9.6459 18.0686 9.58262C17.4524 9.44023 16.7976 9.44023 16.1814 9.58262C15.9055 9.6459 15.7122 9.89375 15.7122 10.1812V10.6821C15.5111 10.7744 15.3203 10.8878 15.1398 11.0196L14.7144 10.7691C14.4695 10.6241 14.1653 10.6716 13.9745 10.8852C13.544 11.3624 13.2166 11.9425 13.0283 12.5568C12.9433 12.8311 13.0593 13.1316 13.3016 13.274L13.727 13.5245C13.7064 13.7486 13.7064 13.9754 13.727 14.1995L13.2991 14.45C13.0593 14.5924 12.9433 14.8956 13.0283 15.1646C13.214 15.7815 13.5414 16.3616 13.9745 16.8389C14.1653 17.0498 14.4695 17.0973 14.7144 16.9549L15.1398 16.7044C15.3203 16.8362 15.5111 16.9496 15.7122 17.0419V17.5429C15.7122 17.8329 15.9055 18.0781 16.1814 18.1414C16.4908 18.2126 16.8079 18.2469 17.125 18.2469C17.4421 18.2469 17.7618 18.2126 18.0686 18.1414C18.3444 18.0781 18.5378 17.8303 18.5378 17.5429V17.0419C18.7389 16.9496 18.9297 16.8362 19.1101 16.7044L19.5355 16.9549C19.7779 17.0973 20.0847 17.0498 20.2755 16.8389C20.706 16.3616 21.0334 15.7815 21.2216 15.1672C21.3067 14.893 21.1907 14.5897 20.9483 14.4474ZM19.618 14.6372L20.376 15.0854C20.2419 15.4625 20.0408 15.8185 19.7882 16.127L19.0302 15.6787C18.4785 16.1612 18.3986 16.2087 17.7128 16.4565V17.353C17.3235 17.4216 16.9239 17.4216 16.5372 17.353V16.4565C15.8437 16.2061 15.7586 16.148 15.2198 15.6787L14.4618 16.127C14.2091 15.8158 14.008 15.4625 13.874 15.0854L14.6319 14.6372C14.5056 13.9306 14.4979 13.8304 14.6319 13.0815L13.874 12.6333C14.008 12.2562 14.2091 11.9029 14.4618 11.5918L15.2198 12.04C15.7715 11.5575 15.8514 11.5101 16.5372 11.2622V10.3657C16.9265 10.2998 17.3287 10.2998 17.7128 10.3657V11.2622C18.4037 11.5127 18.4914 11.5681 19.0302 12.04L19.7882 11.5918C20.0408 11.9029 20.2419 12.2562 20.376 12.6333L19.618 13.0815C19.7444 13.7882 19.7521 13.8884 19.618 14.6372ZM17.125 12.1587C16.2072 12.1587 15.4621 12.9233 15.4621 13.8594C15.4621 14.7954 16.2072 15.5601 17.125 15.5601C18.0428 15.5601 18.7879 14.7954 18.7879 13.8594C18.7879 12.9233 18.0428 12.1587 17.125 12.1587V12.1587ZM17.125 14.7163C16.6635 14.7163 16.2871 14.3313 16.2871 13.8594C16.2871 13.3874 16.6635 13.0024 17.125 13.0024C17.5865 13.0024 17.9629 13.3874 17.9629 13.8594C17.9629 14.3313 17.5865 14.7163 17.125 14.7163V14.7163ZM10.525 11.75C12.3477 11.75 13.825 10.2392 13.825 8.375C13.825 6.51084 12.3477 5 10.525 5C8.70226 5 7.225 6.51084 7.225 8.375C7.225 10.2392 8.70226 11.75 10.525 11.75ZM10.525 5.84375C11.8888 5.84375 13 6.98018 13 8.375C13 9.76982 11.8888 10.9062 10.525 10.9062C9.16117 10.9062 8.05 9.76982 8.05 8.375C8.05 6.98018 9.16117 5.84375 10.525 5.84375ZM5.9875 17.6562C5.76062 17.6562 5.575 17.4664 5.575 17.2344V16.1375C5.575 14.6478 6.75836 13.4375 8.215 13.4375C8.72031 13.4375 9.22304 13.8594 10.525 13.8594C11.02 13.8594 11.5047 13.7724 11.9816 13.63C11.9945 13.3241 12.028 13.0235 12.0899 12.7335C11.8605 12.8047 11.3139 13.0156 10.525 13.0156C9.3107 13.0156 8.95749 12.5938 8.215 12.5938C6.30203 12.5938 4.75 14.1811 4.75 16.1375V17.2344C4.75 17.9331 5.3043 18.5 5.9875 18.5H14.6758C14.2633 18.2732 13.8869 17.9858 13.5543 17.6562H5.9875Z" fill="#4A4A4A"/>
</svg>
