<svg width="24" height="24" viewBox="0 0 24 24" fill="none" xmlns="http://www.w3.org/2000/svg">
<path d="M5.3629 4.48388H5.66532C5.86574 4.48388 6.02823 4.64637 6.02823 4.84678V7.70842C7.33455 5.48328 9.75521 3.99139 12.524 4.00004C16.6486 4.01295 20.0064 7.38737 20 11.512C19.9935 15.6486 16.6381 19 12.5 19C10.5668 19 8.80437 18.2685 7.47445 17.0673C7.31983 16.9276 7.31254 16.6874 7.45988 16.5401L7.67366 16.3263C7.80984 16.1901 8.02897 16.1838 8.1721 16.3126C9.318 17.3439 10.8347 17.9718 12.5 17.9718C16.0608 17.9718 18.9718 15.0888 18.9718 11.5C18.9718 7.9392 16.0888 5.02823 12.5 5.02823C9.99409 5.02823 7.82045 6.45193 6.74529 8.5363H9.71774C9.91815 8.5363 10.0806 8.69879 10.0806 8.8992V9.20162C10.0806 9.40203 9.91815 9.56452 9.71774 9.56452H5.3629C5.16249 9.56452 5 9.40203 5 9.20162V4.84678C5 4.64637 5.16249 4.48388 5.3629 4.48388ZM15.0901 14.0172L15.2324 13.8215C15.3503 13.6594 15.3145 13.4325 15.1524 13.3146L12.9839 11.7375V7.26613C12.9839 7.06572 12.8214 6.90323 12.621 6.90323H12.379C12.1786 6.90323 12.0161 7.06572 12.0161 7.26613V12.2303L14.5832 14.0972C14.7453 14.2151 14.9722 14.1793 15.0901 14.0172V14.0172Z" fill="#4A4A4A"/>
</svg>
