<svg width="30" height="30" viewBox="0 0 30 30" fill="none" xmlns="http://www.w3.org/2000/svg">
<g clip-path="url(#clip0)">
<path d="M15.0003 27.5781C14.0148 27.5781 13.2146 26.7707 13.2146 25.7796H11.4288C11.4288 27.7623 13.0315 29.375 15.0003 29.375C16.969 29.375 18.5717 27.7623 18.5717 25.7796H16.786C16.786 26.7707 15.9858 27.5781 15.0003 27.5781ZM26.6844 19.4254C25.1242 17.9306 23.9311 16.3662 23.9311 11.0637C23.9311 6.59456 20.3937 2.94971 15.8931 2.50891V1.52344C15.8931 1.02705 15.4936 0.625 15.0003 0.625C14.507 0.625 14.1074 1.02705 14.1074 1.52344V2.50947C9.60685 2.95027 6.06946 6.59456 6.06946 11.0637C6.06946 16.3656 4.87583 17.9306 3.31556 19.4254C2.53598 20.1722 2.28989 21.3014 2.68777 22.3021C3.09402 23.324 4.0717 23.9844 5.17884 23.9844H24.8217C25.9288 23.9844 26.9065 23.3235 27.3128 22.3015C27.7107 21.3009 27.464 20.1722 26.6844 19.4254V19.4254ZM24.8217 22.1875H5.17884C4.38475 22.1875 3.98799 21.2627 4.54714 20.727C6.49246 18.8633 7.85518 16.7772 7.85518 11.0643C7.85518 7.28074 11.0511 4.21875 15.0003 4.21875C18.9489 4.21875 22.1454 7.28018 22.1454 11.0637C22.1454 16.7548 23.4964 18.8521 25.4534 20.7264C26.0148 21.2649 25.6124 22.1875 24.8217 22.1875Z" fill="black"/>
</g>
<defs>
<clipPath id="clip0">
<rect width="25" height="28.75" fill="white" transform="translate(2.5 0.625)"/>
</clipPath>
</defs>
</svg>
