<svg width="24" height="24" viewBox="0 0 24 24" fill="none" xmlns="http://www.w3.org/2000/svg">
<path d="M19.2639 11.4723L13.1944 5.40273C12.9365 5.14487 12.5868 5 12.2221 5H6.375C5.6156 5 5 5.6156 5 6.375V12.2221C5 12.5868 5.14487 12.9365 5.40273 13.1944L11.4723 19.2639C12.0092 19.8009 12.8798 19.8009 13.4168 19.2639L19.2639 13.4168C19.8009 12.8798 19.8009 12.0092 19.2639 11.4723V11.4723ZM18.6158 12.7686L12.7686 18.6158C12.5898 18.7946 12.2996 18.7949 12.1205 18.6158L6.0509 12.5462C6.00821 12.5037 5.97436 12.4532 5.95132 12.3976C5.92828 12.342 5.9165 12.2823 5.91667 12.2221V6.375C5.91667 6.12229 6.12229 5.91667 6.375 5.91667H12.2221C12.3446 5.91667 12.4597 5.96433 12.5462 6.0509L18.6158 12.1204C18.7945 12.2992 18.7945 12.5899 18.6158 12.7686V12.7686ZM9.125 8.55208C9.44091 8.55208 9.69792 8.80909 9.69792 9.125C9.69792 9.44091 9.44091 9.69792 9.125 9.69792C8.8091 9.69792 8.55209 9.44091 8.55209 9.125C8.55209 8.80909 8.8091 8.55208 9.125 8.55208ZM9.125 7.75C8.3656 7.75 7.75 8.3656 7.75 9.125C7.75 9.8844 8.3656 10.5 9.125 10.5C9.8844 10.5 10.5 9.8844 10.5 9.125C10.5 8.3656 9.8844 7.75 9.125 7.75Z" fill="#4A4A4A"/>
</svg>
