<svg width="24" height="24" viewBox="0 0 24 24" fill="none" xmlns="http://www.w3.org/2000/svg">
<path d="M17.705 6.33301H6.2976C5.39876 6.33301 4.66797 7.05905 4.66797 7.95206V16.0473C4.66797 16.9403 5.39876 17.6663 6.2976 17.6663H17.705C18.6038 17.6663 19.3346 16.9403 19.3346 16.0473V7.95206C19.3346 7.05905 18.6038 6.33301 17.705 6.33301ZM18.5198 16.0473C18.5198 16.4925 18.1532 16.8568 17.705 16.8568H6.2976C5.84945 16.8568 5.48278 16.4925 5.48278 16.0473V7.95206C5.48278 7.50682 5.84945 7.14253 6.2976 7.14253H17.705C18.1532 7.14253 18.5198 7.50682 18.5198 7.95206V16.0473ZM16.6865 12.8092H13.8346C13.7226 12.8092 13.6309 12.9003 13.6309 13.0116V13.4163C13.6309 13.5277 13.7226 13.6187 13.8346 13.6187H16.6865C16.7985 13.6187 16.8902 13.5277 16.8902 13.4163V13.0116C16.8902 12.9003 16.7985 12.8092 16.6865 12.8092ZM16.6865 11.1902H13.8346C13.7226 11.1902 13.6309 11.2812 13.6309 11.3925V11.7973C13.6309 11.9086 13.7226 11.9997 13.8346 11.9997H16.6865C16.7985 11.9997 16.8902 11.9086 16.8902 11.7973V11.3925C16.8902 11.2812 16.7985 11.1902 16.6865 11.1902ZM16.6865 9.5711H13.8346C13.7226 9.5711 13.6309 9.66217 13.6309 9.77348V10.1782C13.6309 10.2896 13.7226 10.3806 13.8346 10.3806H16.6865C16.7985 10.3806 16.8902 10.2896 16.8902 10.1782V9.77348C16.8902 9.66217 16.7985 9.5711 16.6865 9.5711ZM9.96426 12.8092C11.0897 12.8092 12.0013 11.9035 12.0013 10.7854C12.0013 9.66723 11.0897 8.76158 9.96426 8.76158C8.8388 8.76158 7.92723 9.66723 7.92723 10.7854C7.92723 11.9035 8.8388 12.8092 9.96426 12.8092ZM9.96426 9.5711C10.639 9.5711 11.1865 10.115 11.1865 10.7854C11.1865 11.4558 10.639 11.9997 9.96426 11.9997C9.2895 11.9997 8.74204 11.4558 8.74204 10.7854C8.74204 10.115 9.2895 9.5711 9.96426 9.5711ZM11.1559 13.214C10.6594 13.214 10.5346 13.391 9.96426 13.391C9.39389 13.391 9.26913 13.214 8.7726 13.214C8.23278 13.214 7.70825 13.4518 7.40269 13.9071C7.21936 14.1778 7.11241 14.5041 7.11241 14.8558V15.4402C7.11241 15.5515 7.20408 15.6425 7.31612 15.6425H7.72352C7.83556 15.6425 7.92723 15.5515 7.92723 15.4402V14.8558C7.92723 14.6787 7.9807 14.5067 8.08001 14.3599C8.2226 14.15 8.48232 14.026 8.77514 14.026C9.09089 14.026 9.30477 14.2031 9.96681 14.2031C10.6263 14.2031 10.8402 14.026 11.1585 14.026C11.4513 14.026 11.711 14.1525 11.8536 14.3599C11.9529 14.5067 12.0064 14.6787 12.0064 14.8558V15.4402C12.0064 15.5515 12.0981 15.6425 12.2101 15.6425H12.6175C12.7295 15.6425 12.8212 15.5515 12.8212 15.4402V14.8558C12.8212 14.5041 12.7143 14.1778 12.5309 13.9071C12.2177 13.4518 11.6932 13.214 11.1559 13.214V13.214Z" fill="#4A4A4A"/>
</svg>
