<svg width="24" height="24" viewBox="0 0 24 24" fill="none" xmlns="http://www.w3.org/2000/svg">
<path d="M6.9235 6H5.48087C5.35334 6 5.23103 6.04776 5.14084 6.13278C5.05066 6.21779 5 6.3331 5 6.45333V7.81333C5 7.93356 5.05066 8.04887 5.14084 8.13389C5.23103 8.2189 5.35334 8.26667 5.48087 8.26667H6.9235C7.05103 8.26667 7.17335 8.2189 7.26353 8.13389C7.35371 8.04887 7.40437 7.93356 7.40437 7.81333V6.45333C7.40437 6.3331 7.35371 6.21779 7.26353 6.13278C7.17335 6.04776 7.05103 6 6.9235 6V6ZM6.9235 10.5333H5.48087C5.35334 10.5333 5.23103 10.5811 5.14084 10.6661C5.05066 10.7511 5 10.8664 5 10.9867V12.3467C5 12.4669 5.05066 12.5822 5.14084 12.6672C5.23103 12.7522 5.35334 12.8 5.48087 12.8H6.9235C7.05103 12.8 7.17335 12.7522 7.26353 12.6672C7.35371 12.5822 7.40437 12.4669 7.40437 12.3467V10.9867C7.40437 10.8664 7.35371 10.7511 7.26353 10.6661C7.17335 10.5811 7.05103 10.5333 6.9235 10.5333ZM6.9235 15.0667H5.48087C5.35334 15.0667 5.23103 15.1144 5.14084 15.1994C5.05066 15.2845 5 15.3998 5 15.52V16.88C5 17.0002 5.05066 17.1155 5.14084 17.2006C5.23103 17.2856 5.35334 17.3333 5.48087 17.3333H6.9235C7.05103 17.3333 7.17335 17.2856 7.26353 17.2006C7.35371 17.1155 7.40437 17.0002 7.40437 16.88V15.52C7.40437 15.3998 7.35371 15.2845 7.26353 15.1994C7.17335 15.1144 7.05103 15.0667 6.9235 15.0667ZM19.4262 15.7467H9.32787C9.2641 15.7467 9.20294 15.7705 9.15785 15.8131C9.11276 15.8556 9.08743 15.9132 9.08743 15.9733V16.4267C9.08743 16.4868 9.11276 16.5444 9.15785 16.5869C9.20294 16.6295 9.2641 16.6533 9.32787 16.6533H19.4262C19.49 16.6533 19.5512 16.6295 19.5962 16.5869C19.6413 16.5444 19.6667 16.4868 19.6667 16.4267V15.9733C19.6667 15.9132 19.6413 15.8556 19.5962 15.8131C19.5512 15.7705 19.49 15.7467 19.4262 15.7467ZM19.4262 6.68H9.32787C9.2641 6.68 9.20294 6.70388 9.15785 6.74639C9.11276 6.7889 9.08743 6.84655 9.08743 6.90667V7.36C9.08743 7.42012 9.11276 7.47777 9.15785 7.52028C9.20294 7.56279 9.2641 7.58667 9.32787 7.58667H19.4262C19.49 7.58667 19.5512 7.56279 19.5962 7.52028C19.6413 7.47777 19.6667 7.42012 19.6667 7.36V6.90667C19.6667 6.84655 19.6413 6.7889 19.5962 6.74639C19.5512 6.70388 19.49 6.68 19.4262 6.68ZM19.4262 11.2133H9.32787C9.2641 11.2133 9.20294 11.2372 9.15785 11.2797C9.11276 11.3222 9.08743 11.3799 9.08743 11.44V11.8933C9.08743 11.9534 9.11276 12.0111 9.15785 12.0536C9.20294 12.0961 9.2641 12.12 9.32787 12.12H19.4262C19.49 12.12 19.5512 12.0961 19.5962 12.0536C19.6413 12.0111 19.6667 11.9534 19.6667 11.8933V11.44C19.6667 11.3799 19.6413 11.3222 19.5962 11.2797C19.5512 11.2372 19.49 11.2133 19.4262 11.2133Z" fill="#4A4A4A"/>
</svg>
