<svg width="24" height="24" viewBox="0 0 24 24" fill="none" xmlns="http://www.w3.org/2000/svg">
<path d="M12 13.25C12.6188 13.25 13.2123 12.9866 13.6499 12.5178C14.0875 12.0489 14.3333 11.413 14.3333 10.75C14.3333 10.087 14.0875 9.45107 13.6499 8.98223C13.2123 8.51339 12.6188 8.25 12 8.25C11.9635 8.25 11.9315 8.25937 11.8961 8.26133C12.0085 8.59309 12.0303 8.95234 11.9589 9.2969C11.8875 9.64147 11.7258 9.95706 11.4929 10.2066C11.2599 10.4562 10.9654 10.6294 10.6438 10.706C10.3222 10.7825 9.98688 10.7591 9.67723 10.6387C9.67723 10.6777 9.66666 10.7121 9.66666 10.75C9.66666 11.0783 9.72702 11.4034 9.84428 11.7067C9.96154 12.01 10.1334 12.2856 10.3501 12.5178C10.7877 12.9866 11.3812 13.25 12 13.25ZM22.3731 11.4297C20.396 7.29648 16.4818 4.5 12 4.5C7.51817 4.5 3.6029 7.29844 1.62686 11.4301C1.54345 11.6068 1.5 11.8021 1.5 12.0002C1.5 12.1983 1.54345 12.3936 1.62686 12.5703C3.60399 16.7035 7.51817 19.5 12 19.5C16.4818 19.5 20.3971 16.7016 22.3731 12.5699C22.4565 12.3932 22.5 12.1979 22.5 11.9998C22.5 11.8017 22.4565 11.6064 22.3731 11.4297V11.4297ZM12 5.75C12.923 5.75 13.8252 6.04324 14.5927 6.59265C15.3601 7.14206 15.9582 7.92295 16.3114 8.83658C16.6647 9.75021 16.7571 10.7555 16.577 11.7255C16.3969 12.6954 15.9525 13.5863 15.2998 14.2855C14.6472 14.9848 13.8157 15.461 12.9104 15.6539C12.0052 15.8469 11.0669 15.7478 10.2141 15.3694C9.36142 14.991 8.63258 14.3501 8.1198 13.5279C7.60702 12.7056 7.33332 11.7389 7.33332 10.75C7.33468 9.42436 7.82678 8.15343 8.70165 7.21607C9.57653 6.2787 10.7627 5.75145 12 5.75V5.75ZM12 18.25C8.08583 18.25 4.50926 15.8551 2.66665 12C3.70295 9.82028 5.36022 8.05079 7.39822 6.94805C6.63733 8.00352 6.16666 9.31133 6.16666 10.75C6.16666 12.4076 6.78124 13.9973 7.8752 15.1694C8.96917 16.3415 10.4529 17 12 17C13.5471 17 15.0308 16.3415 16.1248 15.1694C17.2188 13.9973 17.8333 12.4076 17.8333 10.75C17.8333 9.31133 17.3627 8.00352 16.6018 6.94805C18.6398 8.05079 20.297 9.82028 21.3334 12C19.4911 15.8551 15.9142 18.25 12 18.25Z" fill="black"/>
</svg>
