<svg width="20" height="20" viewBox="0 0 20 20" fill="none" xmlns="http://www.w3.org/2000/svg">
<g clip-path="url(#clip0)">
<path d="M10.0026 2.96891C13.864 2.96891 17.0339 6.09635 17.0339 10.0002C17.0339 13.8833 13.889 17.0314 10.0026 17.0314C6.12096 17.0314 2.97135 13.8881 2.97135 10.0002C2.97135 6.11986 6.11595 2.96891 10.0026 2.96891ZM10.0026 1.92725C5.54437 1.92725 1.92969 5.54323 1.92969 10.0002C1.92969 14.4597 5.54437 18.0731 10.0026 18.0731C14.4608 18.0731 18.0755 14.4597 18.0755 10.0002C18.0755 5.54323 14.4608 1.92725 10.0026 1.92725ZM8.83073 13.1252H9.22136V9.21891H8.83073C8.61501 9.21891 8.44011 9.04401 8.44011 8.82829V8.56787C8.44011 8.35215 8.61501 8.17725 8.83073 8.17725H10.3932C10.609 8.17725 10.7839 8.35215 10.7839 8.56787V13.1252H11.1745C11.3902 13.1252 11.5651 13.3001 11.5651 13.5158V13.7762C11.5651 13.9919 11.3902 14.1668 11.1745 14.1668H8.83073C8.61501 14.1668 8.44011 13.9919 8.44011 13.7762V13.5158C8.44011 13.3001 8.61501 13.1252 8.83073 13.1252ZM10.0026 5.31266C9.42731 5.31266 8.96094 5.77904 8.96094 6.35433C8.96094 6.92962 9.42731 7.396 10.0026 7.396C10.5779 7.396 11.0443 6.92962 11.0443 6.35433C11.0443 5.77904 10.5779 5.31266 10.0026 5.31266Z" fill="white"/>
</g>
<defs>
<clipPath id="clip0">
<rect width="16.6667" height="16.6667" fill="white" transform="translate(1.66797 1.66675)"/>
</clipPath>
</defs>
</svg>
