<svg width="24" height="24" viewBox="0 0 24 24" fill="none" xmlns="http://www.w3.org/2000/svg">
<path d="M17.6875 6.66666H6.3125C5.58789 6.66666 5 7.26388 5 7.99999V16C5 16.7361 5.58789 17.3333 6.3125 17.3333H17.6875C18.4121 17.3333 19 16.7361 19 16V7.99999C19 7.26388 18.4121 6.66666 17.6875 6.66666ZM6.3125 7.55555H17.6875C17.9281 7.55555 18.125 7.75555 18.125 7.99999V9.14999C17.5262 9.66388 16.6703 10.3722 14.007 12.5194C13.5449 12.8917 12.6344 13.7889 12 13.7778C11.3656 13.7889 10.4523 12.8917 9.99297 12.5194C7.32969 10.3722 6.47383 9.66388 5.875 9.14999V7.99999C5.875 7.75555 6.07187 7.55555 6.3125 7.55555ZM17.6875 16.4444H6.3125C6.07187 16.4444 5.875 16.2444 5.875 16V10.3055C6.49844 10.825 7.48281 11.6278 9.44883 13.2139C10.0094 13.6694 10.9992 14.6722 12 14.6667C12.9953 14.675 13.977 13.6805 14.5512 13.2139C16.5172 11.6278 17.5016 10.825 18.125 10.3055V16C18.125 16.2444 17.9281 16.4444 17.6875 16.4444Z" fill="#4A4A4A"/>
</svg>
