<svg width="24" height="24" viewBox="0 0 24 24" fill="none" xmlns="http://www.w3.org/2000/svg">
<g clip-path="url(#clip0)">
<path fill-rule="evenodd" clip-rule="evenodd" d="M11.5395 17.6973C11.5198 17.6464 11.4546 17.6307 11.4134 17.6667C11.2044 17.8494 10.9374 17.9687 10.6475 17.9687C9.98321 17.9687 9.43966 17.3426 9.43657 16.7625H11.6239L11.9521 16.3699L11.8729 16.2029L11.7429 16.2007C11.3621 16.1934 11.0335 15.9546 10.863 15.6382H5.12423V14.6934L6.48086 13.3006C6.48086 11.9679 6.48086 10.8174 6.48086 10.5751C6.48086 8.52577 7.83749 6.84193 9.77539 6.43191V6.03813C9.77539 5.61805 10.0552 5.23317 10.4658 5.14416C11.0314 5.02168 11.5196 5.48917 11.5196 6.03291C11.5196 6.07335 11.5196 6.22273 11.5196 6.43191C13.1502 6.77672 14.366 8.02479 14.7116 9.6322C14.7181 9.66296 14.7528 9.67554 14.7781 9.65697C14.9463 9.53448 15.1502 9.4596 15.3718 9.4596H15.7296C15.7779 9.4596 15.8147 9.41432 15.8043 9.3671C15.4215 7.63915 14.2321 6.22525 12.5949 5.5838C12.3936 4.67822 11.597 4 10.6477 4C9.69837 4 8.90174 4.67822 8.7003 5.5838C6.69468 6.3696 5.35663 8.31311 5.35663 10.5751V12.8435L4.16467 14.0674C4.05902 14.1758 4 14.3211 4 14.4724V16.2004C4 16.5109 4.25174 16.7625 4.56212 16.7625H8.31234C8.31524 18.0045 9.40503 19.093 10.6477 19.093C11.2288 19.093 11.7746 18.853 12.1934 18.4726L11.7615 18.0407C11.661 17.9403 11.5883 17.8227 11.5395 17.6973Z" fill="#4A4A4A"/>
<path fill-rule="evenodd" clip-rule="evenodd" d="M19.7257 13.9804C19.7257 13.9804 19.0809 13.9253 18.7322 13.8395C18.7036 13.8324 18.7036 13.8324 18.7036 13.8324C18.6744 13.8208 18.6278 13.7463 18.5999 13.6664C18.572 13.5874 18.5 13.3057 18.5221 13.2087C18.5221 13.2087 18.5221 13.2087 18.5889 13.1153C18.917 12.6549 19.2185 12.3395 19.2185 12.3395C19.3133 12.2408 19.3114 12.0802 19.2146 11.9837L18.5864 11.3552C18.4898 11.2586 18.3296 11.2567 18.2303 11.3513C18.2303 11.3513 17.8867 11.6801 17.4254 11.9357C17.3242 11.992 17.3242 11.992 17.3242 11.992C17.2009 12.0005 17.0337 11.979 16.9532 11.944C16.8727 11.909 16.6457 11.8163 16.6394 11.7937C16.6394 11.7937 16.6394 11.7937 16.6355 11.7708C16.542 11.2132 16.5318 10.6412 16.5318 10.6412C16.5291 10.5042 16.4149 10.3922 16.2781 10.3922H15.3897C15.2527 10.3922 15.1388 10.5042 15.1361 10.6412C15.1361 10.6412 15.1244 11.2526 14.9791 11.7598C14.97 11.7915 14.97 11.7915 14.97 11.7915C14.9553 11.824 14.8961 11.8662 14.8396 11.8858C14.7825 11.9051 14.5252 11.963 14.3878 11.961C14.3878 11.961 14.3768 11.961 14.2585 11.8955C13.7968 11.64 13.4538 11.3119 13.4538 11.3119C13.3551 11.217 13.1943 11.219 13.0977 11.3157L12.4694 11.944C12.3729 12.0406 12.3708 12.2008 12.4654 12.3001C12.4654 12.3001 12.767 12.6145 13.095 13.075C13.1548 13.1586 13.1548 13.1586 13.1548 13.1586C13.178 13.2469 13.1645 13.3887 13.1242 13.4744C13.084 13.5601 12.9698 13.8117 12.9342 13.8285C12.9342 13.8285 12.9342 13.8285 12.8986 13.8388C12.3915 13.9847 11.916 13.9951 11.916 13.9951C11.7792 13.9976 11.667 14.1126 11.667 14.2494V15.1379C11.667 15.2747 11.7792 15.3895 11.916 15.3922C11.916 15.3922 12.3518 15.4013 12.9095 15.4945C12.9373 15.499 12.9373 15.499 12.9373 15.499C12.9652 15.5067 13.0126 15.5839 13.0424 15.671C13.0722 15.7579 13.1527 16.0607 13.1318 16.1619C13.1318 16.1619 13.1318 16.1619 13.0623 16.2593C12.7343 16.7196 12.4327 17.034 12.4327 17.034C12.338 17.1327 12.34 17.2935 12.4367 17.3901L13.065 18.0184C13.1616 18.1149 13.3218 18.117 13.4211 18.0224C13.4211 18.0224 13.7641 17.6935 14.226 17.4381C14.3421 17.3738 14.3485 17.3738 14.3485 17.3738C14.4853 17.3707 14.6438 17.387 14.6999 17.4115C14.7564 17.4355 14.9296 17.5269 14.9536 17.5723C14.9536 17.5723 14.9536 17.5723 14.9666 17.6176C15.1124 18.1248 15.1227 18.6002 15.1227 18.6002C15.126 18.737 15.2402 18.8493 15.377 18.8493H16.2655C16.4023 18.8493 16.5173 18.737 16.5198 18.6002C16.5198 18.6002 16.5296 18.1645 16.6229 17.6068C16.6281 17.5749 16.6281 17.5749 16.6281 17.5749C16.637 17.5439 16.7084 17.4965 16.787 17.47C16.8654 17.4433 17.1759 17.3636 17.3129 17.3688C17.3129 17.3688 17.3129 17.3688 17.425 17.4311C17.8868 17.6865 18.2299 18.0155 18.2299 18.0155C18.3292 18.1101 18.4894 18.1081 18.586 18.0114L19.2143 17.3831C19.3108 17.2865 19.3129 17.1263 19.2181 17.0271C19.2181 17.0271 18.9167 16.7124 18.5885 16.2521C18.519 16.1542 18.519 16.1542 18.519 16.1542C18.4983 16.0522 18.5113 15.9011 18.5476 15.8189C18.584 15.7364 18.6781 15.5044 18.6994 15.4984C18.6988 15.4998 18.6988 15.4998 18.7201 15.4967C19.2779 15.4032 19.7247 15.3935 19.7247 15.3935C19.8615 15.3908 19.9737 15.2761 19.9737 15.1393V14.2509C19.9739 14.1141 19.8625 13.992 19.7257 13.9804ZM15.8255 16.5563C14.7957 16.5563 13.9604 15.7215 13.9604 14.6913C13.9604 13.6611 14.7951 12.8262 15.8255 12.8262C16.8559 12.8262 17.6904 13.6609 17.6904 14.6913C17.6899 15.7215 16.8551 16.5563 15.8255 16.5563Z" fill="#4A4A4A"/>
</g>
<defs>
<clipPath id="clip0">
<rect width="15.9736" height="15.093" fill="white" transform="translate(4 4)"/>
</clipPath>
</defs>
</svg>
