<svg width="20" height="20" viewBox="0 0 20 20" fill="none" xmlns="http://www.w3.org/2000/svg">
<g clip-path="url(#clip0)">
<path d="M17.5471 2.45073L14.2658 1.69227C13.7873 1.58159 13.2958 1.82899 13.1005 2.28146L11.5868 5.81336C11.4078 6.22677 11.5282 6.71506 11.8765 7.00151L13.6311 8.43706C12.5243 10.6897 10.6916 12.5256 8.43576 13.6324L7.00021 11.8778C6.71375 11.5295 6.22547 11.4091 5.81206 11.5881L2.28341 13.1018C1.83094 13.2971 1.58354 13.7854 1.69422 14.2639L2.44943 17.5419C2.55685 18.0074 2.96701 18.3329 3.44227 18.3329C11.6519 18.3329 18.3348 11.6858 18.3348 3.44031C18.3348 2.96505 18.0093 2.5549 17.5471 2.45073ZM3.4618 17.2912L2.7131 14.049L6.20919 12.5516L8.14604 14.9214C11.5184 13.3394 13.3446 11.5067 14.9201 8.14735L12.5503 6.2105L14.0477 2.7144L17.2899 3.4631C17.2834 11.0966 11.0953 17.2815 3.4618 17.2912Z" fill="#4A4A4A"/>
</g>
<defs>
<clipPath id="clip0">
<rect width="16.6667" height="16.6667" fill="white" transform="translate(1.66797 1.66675)"/>
</clipPath>
</defs>
</svg>
