<svg width="24" height="24" viewBox="0 0 24 24" fill="none" xmlns="http://www.w3.org/2000/svg">
<path d="M14.8667 13.25C14.0552 13.25 13.665 13.7083 12.3333 13.7083C11.0016 13.7083 10.6143 13.25 9.8 13.25C7.70208 13.25 6 14.9745 6 17.1V18.2917C6 19.0508 6.60789 19.6667 7.35714 19.6667H17.3095C18.0588 19.6667 18.6667 19.0508 18.6667 18.2917V17.1C18.6667 14.9745 16.9646 13.25 14.8667 13.25ZM17.7619 18.2917C17.7619 18.5438 17.5583 18.75 17.3095 18.75H7.35714C7.10833 18.75 6.90476 18.5438 6.90476 18.2917V17.1C6.90476 15.4815 8.20253 14.1667 9.8 14.1667C10.3542 14.1667 10.9055 14.625 12.3333 14.625C13.7583 14.625 14.3125 14.1667 14.8667 14.1667C16.4641 14.1667 17.7619 15.4815 17.7619 17.1V18.2917ZM12.3333 12.3333C14.3323 12.3333 15.9524 10.6919 15.9524 8.66667C15.9524 6.64141 14.3323 5 12.3333 5C10.3344 5 8.71429 6.64141 8.71429 8.66667C8.71429 10.6919 10.3344 12.3333 12.3333 12.3333ZM12.3333 5.91667C13.829 5.91667 15.0476 7.1513 15.0476 8.66667C15.0476 10.182 13.829 11.4167 12.3333 11.4167C10.8376 11.4167 9.61905 10.182 9.61905 8.66667C9.61905 7.1513 10.8376 5.91667 12.3333 5.91667Z" fill="#4A4A4A"/>
</svg>
