<svg width="24" height="24" viewBox="0 0 24 24" fill="none" xmlns="http://www.w3.org/2000/svg">
<g clip-path="url(#clip0)">
<path d="M19.7993 10.2966C18.957 10.2966 18.235 10.9584 18.1448 11.8008H14.0835C14.0835 10.8983 13.3314 10.1462 12.4289 10.1462C11.5264 10.1462 10.7743 10.8983 10.7743 11.8008H8.81892V11.1991H8.21725V11.8008H6.71309C6.62284 10.8983 5.81059 10.2064 4.90809 10.2966C4.00559 10.3869 3.31367 11.1991 3.40392 12.1016C3.49417 13.0041 4.30642 13.696 5.20892 13.6058C5.90084 13.5456 6.47242 13.0643 6.65292 12.4024H10.8345C11.0752 13.2749 11.9777 13.7863 12.8802 13.5456C13.4518 13.3952 13.8729 12.9439 14.0233 12.4024H16.0389V12.7033H16.6406V12.4024H18.2049C18.4456 13.2749 19.3782 13.7863 20.2506 13.5456C21.123 13.3049 21.6344 12.3724 21.3938 11.4999C21.1832 10.7779 20.5514 10.2966 19.7993 10.2966ZM5.0585 13.0041C4.48692 13.0041 4.00559 12.5228 4.00559 11.9512C4.00559 11.3796 4.48692 10.8983 5.0585 10.8983C5.63009 10.8983 6.11142 11.3796 6.11142 11.9512C6.11142 12.5228 5.63009 13.0041 5.0585 13.0041ZM12.4289 12.9439C11.8573 12.9439 11.376 12.4626 11.376 11.891C11.376 11.3194 11.8573 10.8381 12.4289 10.8381C13.0005 10.8381 13.4818 11.3194 13.4818 11.891C13.4818 12.4626 13.0005 12.9439 12.4289 12.9439ZM19.7993 13.0041C19.2278 13.0041 18.7464 12.5228 18.7464 11.9512C18.7464 11.3796 19.2278 10.8983 19.7993 10.8983C20.3709 10.8983 20.8523 11.3796 20.8523 11.9512C20.8523 12.5228 20.3709 13.0041 19.7993 13.0041Z" fill="#4A4A4A"/>
<path d="M8.81895 9.99577H8.21729V10.5974H8.81895V9.99577Z" fill="#4A4A4A"/>
<path d="M8.81895 8.79248H8.21729V9.39415H8.81895V8.79248Z" fill="#4A4A4A"/>
<path d="M8.81895 7.58907H8.21729V8.19074H8.81895V7.58907Z" fill="#4A4A4A"/>
<path d="M16.6407 14.5082H16.0391V15.1099H16.6407V14.5082Z" fill="#4A4A4A"/>
<path d="M16.6407 13.3049H16.0391V13.9066H16.6407V13.3049Z" fill="#4A4A4A"/>
<path d="M5.8106 6.98741H11.2256C11.4061 6.98741 11.5264 6.86708 11.5264 6.68658V4.27991C11.5264 4.09941 11.4061 3.97908 11.2256 3.97908H5.8106C5.6301 3.97908 5.50977 4.09941 5.50977 4.27991V6.68658C5.50977 6.86708 5.6301 6.98741 5.8106 6.98741ZM6.11143 4.58075H10.9248V6.38575H6.11143V4.58075Z" fill="#4A4A4A"/>
<path d="M19.0474 16.0124H16.6407V15.7116H16.039V16.0124H13.6324C13.4519 16.0124 13.3315 16.1328 13.3315 16.3133V18.7199C13.3315 18.9004 13.4519 19.0208 13.6324 19.0208H19.0474C19.2279 19.0208 19.3482 18.9004 19.3482 18.7199V16.3133C19.3482 16.1328 19.2279 16.0124 19.0474 16.0124ZM18.7465 18.4191H13.9332V16.6141H18.7465V18.4191Z" fill="#4A4A4A"/>
</g>
<defs>
<clipPath id="clip0">
<rect width="18.0572" height="15.0417" fill="white" transform="translate(3.396 3.97916)"/>
</clipPath>
</defs>
</svg>
