<svg width="32" height="32" viewBox="0 0 32 32" fill="none" xmlns="http://www.w3.org/2000/svg">
<path d="M29.1471 27.7486L22.4287 21.0302C22.3089 20.9104 22.1527 20.8479 21.986 20.8479H21.4496C23.236 18.9157 24.3297 16.3377 24.3297 13.4993C24.3297 7.51522 19.4809 2.6665 13.4969 2.6665C7.51278 2.6665 2.66406 7.51522 2.66406 13.4993C2.66406 19.4834 7.51278 24.3321 13.4969 24.3321C16.3353 24.3321 18.9133 23.2384 20.8455 21.4573V21.9885C20.8455 22.1551 20.9132 22.3114 21.0277 22.4312L27.7462 29.1496C27.9909 29.3944 28.3868 29.3944 28.6315 29.1496L29.1471 28.634C29.3919 28.3892 29.3919 27.9934 29.1471 27.7486ZM13.4969 22.6655C8.42941 22.6655 4.33065 18.5668 4.33065 13.4993C4.33065 8.43185 8.42941 4.33309 13.4969 4.33309C18.5643 4.33309 22.6631 8.43185 22.6631 13.4993C22.6631 18.5668 18.5643 22.6655 13.4969 22.6655Z" fill="#9C9C9C"/>
</svg>
