<svg width="30" height="30" viewBox="0 0 30 30" fill="none" xmlns="http://www.w3.org/2000/svg">
<g clip-path="url(#clip0)">
<path d="M27.8783 10.0423L20.042 8.95038L16.5395 2.16313C15.912 0.953323 14.0937 0.937944 13.4608 2.16313L9.95833 8.95038L2.12201 10.0423C0.716733 10.2371 0.153548 11.8929 1.17264 12.8413L6.84204 18.1214L5.50112 25.5802C5.25976 26.9284 6.74549 27.9383 7.98986 27.3077L15.0002 23.7859L22.0105 27.3077C23.2548 27.9331 24.7406 26.9284 24.4992 25.5802L23.1583 18.1214L28.8277 12.8413C29.8468 11.8929 29.2836 10.2371 27.8783 10.0423V10.0423ZM21.3186 17.5472L22.8097 25.8519L15.0002 21.9353L7.19604 25.857L8.68714 17.5523L2.36874 11.6622L11.0954 10.4524L15.0002 2.89107L18.9049 10.4524L27.6316 11.6622L21.3186 17.5472Z" fill="black"/>
</g>
<defs>
<clipPath id="clip0">
<rect width="30" height="26.25" fill="white" transform="translate(0 1.25)"/>
</clipPath>
</defs>
</svg>
